<mxfile host="app.diagrams.net" modified="2023-06-04T13:55:56.461Z" agent="Mozilla/5.0 (Linux; Android 11; Infinix X689F) AppleWebKit/537.36 (KHTML, like Gecko) Chrome/106.0.0.0 Mobile Safari/537.36" version="21.3.7" etag="zy5QTV8bCFZ-igGAw4JH" type="github">
  <diagram name="Page-1" id="GHjc0btXk92PUyEL-eeK">
    <mxGraphModel>
      <root>
        <mxCell id="0" />
        <mxCell id="1" parent="0" />
      </root>
    </mxGraphModel>
  </diagram>
</mxfile>
